<svg width="338" height="384" viewBox="0 0 338 384" fill="none" xmlns="http://www.w3.org/2000/svg">
<g clip-path="url(#clip0_7486_37079)">
<path d="M201.745 187.58C194.97 202.32 193.543 219.081 194.138 235.247C194.732 253.91 197.823 272.929 206.857 289.452C215.891 305.857 231.463 319.408 250.007 322.38C267.838 325.233 286.382 317.982 299.577 305.619C312.771 293.256 320.973 276.258 325.49 258.784C332.266 232.632 330.721 203.152 315.624 180.804C288.165 140.269 222.786 142.171 201.745 187.58Z" fill="white"/>
<path d="M319.312 259.14C315.389 274.475 308.138 289.334 296.607 300.27C285.077 311.087 268.792 317.506 253.101 315.01C238.242 312.633 225.404 302.41 217.32 289.572C225.047 298.13 235.151 304.43 246.444 306.214C262.135 308.71 278.42 302.41 289.951 291.473C301.481 280.656 308.732 265.797 312.655 250.463C318.361 228.353 317.291 203.509 305.404 184.133C307.306 186.154 309.089 188.412 310.753 190.908C323.948 210.284 325.255 236.198 319.312 259.14Z" fill="#E6E6E6"/>
<path d="M257.85 325.708C254.997 325.708 252.263 325.47 249.41 324.995C231.342 322.023 214.462 309.185 204.358 290.641C196.275 276.02 191.996 257.833 191.282 235.247C190.569 214.92 193.066 199.348 199.128 186.272C208.994 164.994 229.321 151.205 253.69 149.184C279.366 147.163 303.854 158.575 317.761 179.021C332.026 200.061 335.83 229.304 328.103 259.259C322.992 279.229 313.72 295.871 301.357 307.402C288.995 319.17 273.185 325.708 257.85 325.708ZM259.752 154.652C257.969 154.652 256.067 154.771 254.284 154.89C231.936 156.673 213.274 169.392 204.239 188.768C198.534 201.012 196.275 215.752 196.869 235.247C197.583 257.001 201.624 274.237 209.232 288.145C218.623 305.262 233.957 317.031 250.361 319.646C266.409 322.261 284.121 316.317 297.672 303.598C309.203 292.781 317.88 276.971 322.754 258.07C330.124 229.66 326.558 202.082 313.244 182.349C301.476 164.875 281.387 154.652 259.752 154.652Z" fill="#333333"/>
<path d="M36.7458 181.754C27.2361 197.802 23.0756 216.584 21.2925 235.246C18.9151 259.853 21.8868 287.669 40.3119 304.192C61.1144 322.736 95.9436 318.813 116.627 300.031C137.311 281.25 145.275 251.651 143.849 223.716C142.898 204.815 137.786 185.677 125.78 171.056C98.5588 138.01 57.0727 147.638 36.7458 181.754Z" fill="white"/>
<path d="M117.94 294.564C117.584 294.921 117.108 295.277 116.752 295.753C97.3755 313.227 64.6859 317.031 45.191 299.557C27.8358 284.103 25.1018 258.071 27.3603 234.891C29.0245 217.417 32.9473 199.824 41.8626 184.727C47.093 175.931 53.8686 168.917 61.3575 163.925C57.0782 167.966 53.2743 172.84 49.9459 178.308C41.0305 193.405 37.1078 210.998 35.4436 228.472C33.3039 251.652 35.9191 277.684 53.2743 293.138C70.6295 308.591 98.3265 307.402 117.94 294.564Z" fill="#E6E6E6"/>
<path d="M74.4328 319.17C61.1192 319.17 48.1623 314.891 38.5337 306.213C18.2067 288.026 16.4236 257.476 18.5633 234.89C20.703 212.542 25.8145 194.593 34.3732 180.209C45.5471 161.428 63.3778 149.303 82.1594 147.876C99.2769 146.569 115.562 154.177 128.044 169.154C139.099 182.706 145.637 201.487 146.707 223.479C148.371 255.693 138.148 284.222 118.534 301.934C106.053 313.464 89.8861 319.17 74.4328 319.17ZM39.128 183.181C31.0448 196.851 26.0522 213.969 24.0314 235.485C22.0106 256.762 23.5559 285.529 42.0998 302.052C62.6646 320.359 96.1863 314.772 114.73 298.011C133.036 281.488 142.665 254.504 141.001 223.954C140.287 209.452 136.602 188.768 123.527 172.839C112.472 159.288 97.8505 152.393 82.5161 153.582C65.6363 154.89 49.351 165.945 39.128 183.181Z" fill="#333333"/>
<path d="M94.8824 248.442C97.8542 250.225 101.896 250.106 104.868 248.204C112.238 243.687 106.532 233.583 99.2806 233.464C91.0785 233.345 87.7501 244.163 94.8824 248.442Z" fill="#333333"/>
<path d="M224.683 246.896C226.942 248.323 230.032 248.204 232.41 246.778C238.115 243.33 233.717 235.485 228.011 235.366C221.83 235.247 219.215 243.568 224.683 246.896Z" fill="#333333"/>
<path d="M136.602 0.000732422C138.504 6.65752 140.049 13.4332 141.238 20.2088C143.378 31.7394 136.84 43.151 125.785 47.1926C110.094 53.0173 94.6405 59.5552 78.474 64.4289C62.5453 69.1838 46.2599 74.1764 32.4708 83.4483C18.6818 92.7203 7.62675 107.341 6.43804 123.983C-5.44908 105.083 1.56432 79.6445 17.3742 63.8346C33.1841 48.0247 54.9375 40.0603 75.8588 32.4526C96.8991 24.8448 121.387 16.2861 136.602 0.000732422Z" fill="#333333"/>
<path d="M201.385 0.000732422C198.77 9.27269 196.749 18.6635 195.441 28.1732C194.371 35.4244 198.77 42.4378 205.664 44.8152C223.732 51.1154 241.088 58.842 259.394 64.4289C275.323 69.1838 291.608 74.1764 305.397 83.4483C319.186 92.7203 330.479 107.341 331.549 123.983C343.436 105.083 336.422 79.6445 320.731 63.8346C304.922 48.0247 283.168 40.0603 262.247 32.4526C241.207 24.8448 216.719 16.2861 201.385 0.000732422Z" fill="#333333"/>
<path d="M228.37 383.836H99.6325C98.0872 383.836 96.8984 382.647 96.8984 381.101C96.8984 379.556 98.0872 378.367 99.6325 378.367H228.37C229.915 378.367 231.104 379.556 231.104 381.101C231.104 382.647 229.915 383.836 228.37 383.836Z" fill="#333333"/>
</g>
<defs>
<clipPath id="clip0_7486_37079">
<rect width="337" height="383.835" fill="white" transform="translate(0.5)"/>
</clipPath>
</defs>
</svg>
