<svg width="304" height="303" viewBox="0 0 304 303" fill="none" xmlns="http://www.w3.org/2000/svg">
<rect x="2.5026" y="1.91667" width="299" height="299" rx="149.5" fill="#9DDAF9"/>
<rect x="2.5026" y="1.91667" width="299" height="299" rx="149.5" stroke="#1EB5FF" stroke-width="3.83333"/>
<path d="M219.088 80.9894C204.961 91.5162 201.859 125.812 201.859 125.812C207.717 120.039 219.088 120.173 219.088 120.173C219.088 120.173 230.458 120.039 236.316 125.812C236.316 125.812 233.214 91.5162 219.088 80.9894Z" fill="#03C9C9"/>
<path d="M219.076 80.9895C219.076 80.9895 184.189 80.2259 173.594 120.846C173.594 120.846 188.496 113.079 201.847 125.812C201.847 125.812 204.949 91.5164 219.076 80.9895Z" fill="#FF8F00"/>
<path d="M219.078 80.9895C219.078 80.9895 253.965 80.2259 264.56 120.846C264.56 120.846 249.657 113.079 236.306 125.812C236.306 125.812 233.205 91.5164 219.078 80.9895Z" fill="#F2DB06"/>
<path d="M219.088 80.9898C219.088 80.9898 220.541 80.9586 222.944 81.2528C222.95 81.1651 222.957 81.0785 222.957 80.9898C222.957 78.8843 221.224 77.1766 219.088 77.1766C216.951 77.1766 215.219 78.8843 215.219 80.9898C215.219 81.0785 215.226 81.1651 215.232 81.2528C217.634 80.9586 219.088 80.9898 219.088 80.9898Z" fill="white"/>
<path d="M236.323 126.322C236.189 126.322 236.056 126.271 235.958 126.173C230.323 120.619 219.199 120.682 219.102 120.683C218.986 120.68 207.867 120.621 202.234 126.173C202.079 126.324 201.845 126.364 201.65 126.274C201.453 126.183 201.334 125.98 201.354 125.767C201.481 124.357 204.638 91.1247 218.784 80.5837C218.969 80.4467 219.224 80.4467 219.408 80.5837C233.554 91.1257 236.711 124.357 236.838 125.767C236.858 125.98 236.739 126.183 236.542 126.274C236.471 126.306 236.397 126.322 236.323 126.322ZM219.095 81.6335C207.113 90.9766 203.266 118.22 202.525 124.54C208.64 119.601 218.653 119.658 219.101 119.664C219.534 119.657 229.549 119.601 235.665 124.54C234.923 118.22 231.074 90.9756 219.095 81.6335Z" fill="#3D3D3D"/>
<path d="M201.85 126.322C201.718 126.322 201.588 126.273 201.49 126.179C188.557 113.844 173.983 121.221 173.838 121.297C173.657 121.391 173.436 121.371 173.275 121.246C173.115 121.121 173.043 120.915 173.094 120.719C178.616 99.5489 190.817 89.7343 200.081 85.229C210.123 80.3439 218.724 80.4698 219.088 80.4809C219.308 80.4859 219.5 80.627 219.569 80.8335C219.636 81.04 219.565 81.2657 219.389 81.3967C205.605 91.6676 202.396 125.517 202.365 125.857C202.348 126.053 202.217 126.221 202.031 126.29C201.972 126.311 201.911 126.322 201.85 126.322ZM184.377 118.028C189.419 118.028 195.565 119.493 201.44 124.736C202.066 119.008 205.601 92.0001 217.571 81.5498C214.671 81.7312 207.915 82.5452 200.496 86.1639C191.594 90.505 179.911 99.8834 174.373 119.946C176.072 119.258 179.761 118.028 184.377 118.028Z" fill="#3D3D3D"/>
<path d="M236.314 126.322C236.254 126.322 236.192 126.312 236.134 126.29C235.947 126.221 235.817 126.053 235.8 125.858C235.769 125.517 232.556 91.6657 218.775 81.3958C218.6 81.2648 218.528 81.0392 218.595 80.8326C218.663 80.6261 218.856 80.4851 219.076 80.48C219.439 80.4679 228.039 80.342 238.083 85.2281C247.347 89.7334 259.548 99.548 265.07 120.719C265.121 120.914 265.049 121.12 264.889 121.245C264.728 121.37 264.507 121.39 264.327 121.296C264.181 121.22 249.589 113.861 236.674 126.178C236.575 126.272 236.446 126.322 236.314 126.322ZM220.593 81.5499C232.564 92.0012 236.098 119.011 236.724 124.736C247.977 114.694 260.236 118.507 263.791 119.945C258.253 99.8835 246.57 90.5052 237.668 86.163C230.25 82.5453 223.494 81.7313 220.593 81.5499Z" fill="#3D3D3D"/>
<path d="M215.24 81.7623C215.121 81.7623 215.004 81.722 214.912 81.6454C214.803 81.5568 214.735 81.4268 214.725 81.2878C214.717 81.1679 214.711 81.0793 214.711 80.9896C214.711 78.606 216.679 76.6666 219.097 76.6666C221.516 76.6666 223.483 78.606 223.483 80.9896C223.483 81.0793 223.477 81.1669 223.471 81.2556C223.462 81.3946 223.392 81.5407 223.283 81.6303C223.174 81.719 223.03 81.7784 222.89 81.7593C220.561 81.4742 219.122 81.4984 219.108 81.5004C219.101 81.5004 219.093 81.5004 219.086 81.5004C219.074 81.4994 217.634 81.4742 215.305 81.7593C215.282 81.7603 215.261 81.7623 215.24 81.7623ZM219.096 77.6862C217.353 77.6862 215.917 79.0029 215.759 80.6803C217.746 80.4647 218.958 80.4778 219.096 80.4808C219.236 80.4778 220.449 80.4647 222.434 80.6803C222.275 79.0029 220.839 77.6862 219.096 77.6862Z" fill="#3D3D3D"/>
<path d="M230.579 117.924C230.491 117.924 230.401 117.901 230.318 117.854C230.315 117.852 229.933 117.633 229.214 117.334C228.951 117.224 228.829 116.926 228.939 116.667C229.05 116.408 229.351 116.287 229.617 116.396C230.405 116.725 230.824 116.966 230.841 116.976C231.087 117.118 231.169 117.43 231.025 117.672C230.929 117.834 230.756 117.924 230.579 117.924Z" fill="white"/>
<path d="M227.215 116.602C227.167 116.602 227.118 116.595 227.069 116.581C226.349 116.372 225.596 116.19 224.83 116.042C224.55 115.987 224.368 115.719 224.423 115.443C224.479 115.167 224.751 114.987 225.03 115.042C225.828 115.197 226.612 115.386 227.361 115.604C227.635 115.684 227.791 115.967 227.711 116.237C227.644 116.458 227.439 116.602 227.215 116.602ZM210.938 116.507C210.713 116.507 210.507 116.362 210.443 116.139C210.363 115.869 210.521 115.586 210.795 115.508C211.529 115.298 212.317 115.118 213.138 114.972C213.423 114.919 213.688 115.106 213.739 115.383C213.789 115.66 213.603 115.925 213.322 115.974C212.536 116.114 211.784 116.286 211.083 116.487C211.034 116.5 210.986 116.507 210.938 116.507ZM222.607 115.696C222.587 115.696 222.568 115.695 222.548 115.693C221.795 115.609 221.019 115.552 220.241 115.525C219.956 115.515 219.733 115.278 219.744 114.997C219.754 114.716 219.997 114.492 220.278 114.506C221.083 114.536 221.885 114.594 222.664 114.681C222.947 114.712 223.152 114.965 223.12 115.244C223.089 115.505 222.865 115.696 222.607 115.696ZM215.56 115.667C215.297 115.667 215.072 115.47 215.045 115.206C215.018 114.926 215.225 114.678 215.51 114.65C216.277 114.577 217.079 114.527 217.891 114.503C218.183 114.497 218.416 114.716 218.424 114.997C218.432 115.278 218.208 115.513 217.923 115.522C217.133 115.545 216.355 115.593 215.61 115.665C215.593 115.666 215.576 115.667 215.56 115.667Z" fill="white"/>
<path d="M207.58 117.923C207.422 117.923 207.266 117.852 207.165 117.718C206.995 117.493 207.041 117.176 207.268 117.007C207.284 116.995 207.677 116.708 208.489 116.336C208.75 116.217 209.056 116.329 209.176 116.584C209.296 116.839 209.183 117.142 208.924 117.26C208.223 117.58 207.891 117.82 207.887 117.822C207.795 117.89 207.687 117.923 207.58 117.923Z" fill="white"/>
<path d="M198.724 118.624C198.599 118.624 198.474 118.58 198.375 118.491C198.372 118.488 198.031 118.183 197.409 117.738C197.178 117.573 197.126 117.255 197.294 117.027C197.46 116.799 197.783 116.748 198.015 116.913C198.69 117.395 199.058 117.725 199.072 117.739C199.283 117.93 199.297 118.251 199.104 118.459C199.003 118.569 198.864 118.624 198.724 118.624Z" fill="white"/>
<path d="M195.44 116.43C195.357 116.43 195.273 116.41 195.196 116.369C194.423 115.959 193.618 115.595 192.808 115.288C192.541 115.187 192.408 114.892 192.51 114.63C192.612 114.367 192.911 114.236 193.178 114.337C194.029 114.66 194.874 115.041 195.685 115.473C195.937 115.606 196.031 115.915 195.896 116.163C195.802 116.333 195.624 116.43 195.44 116.43ZM190.421 114.535C190.381 114.535 190.341 114.531 190.3 114.521C189.446 114.32 188.576 114.179 187.715 114.099C187.431 114.073 187.222 113.825 187.248 113.545C187.275 113.265 187.53 113.058 187.811 113.086C188.72 113.17 189.638 113.319 190.539 113.53C190.817 113.595 190.988 113.87 190.923 114.144C190.867 114.377 190.654 114.535 190.421 114.535ZM182.4 114.371C182.157 114.371 181.942 114.203 181.893 113.959C181.837 113.683 182.02 113.415 182.3 113.362C183.209 113.187 184.133 113.075 185.046 113.028C185.312 113.007 185.574 113.23 185.589 113.511C185.603 113.792 185.384 114.031 185.099 114.046C184.236 114.089 183.362 114.196 182.501 114.362C182.465 114.368 182.432 114.371 182.4 114.371Z" fill="white"/>
<path d="M178.572 115.505C178.368 115.505 178.175 115.385 178.093 115.187C177.985 114.927 178.113 114.63 178.376 114.523C178.788 114.358 179.205 114.204 179.616 114.067C179.888 113.976 180.181 114.119 180.272 114.385C180.363 114.651 180.218 114.941 179.948 115.031C179.556 115.162 179.158 115.309 178.766 115.466C178.704 115.493 178.637 115.505 178.572 115.505Z" fill="white"/>
<path d="M239.431 118.624C239.291 118.624 239.152 118.569 239.05 118.459C238.857 118.251 238.871 117.93 239.082 117.739C239.097 117.725 239.464 117.395 240.139 116.913C240.371 116.748 240.694 116.799 240.86 117.027C241.028 117.255 240.977 117.573 240.745 117.738C240.123 118.182 239.782 118.487 239.779 118.491C239.681 118.581 239.556 118.624 239.431 118.624Z" fill="white"/>
<path d="M242.721 116.43C242.537 116.43 242.358 116.333 242.265 116.162C242.13 115.914 242.224 115.606 242.475 115.472C243.287 115.04 244.13 114.659 244.983 114.336C245.25 114.235 245.548 114.366 245.65 114.629C245.752 114.891 245.62 115.186 245.353 115.287C244.542 115.594 243.738 115.958 242.965 116.368C242.887 116.409 242.803 116.43 242.721 116.43ZM247.74 114.535C247.506 114.535 247.294 114.377 247.238 114.143C247.171 113.869 247.343 113.595 247.621 113.529C248.523 113.318 249.441 113.169 250.349 113.085C250.631 113.058 250.885 113.264 250.913 113.544C250.939 113.824 250.73 114.072 250.445 114.098C249.585 114.178 248.715 114.319 247.86 114.52C247.819 114.531 247.78 114.535 247.74 114.535ZM255.761 114.371C255.728 114.371 255.694 114.368 255.661 114.362C254.8 114.196 253.925 114.09 253.062 114.046C252.777 114.032 252.557 113.792 252.573 113.511C252.587 113.23 252.845 113.007 253.115 113.028C254.028 113.075 254.951 113.187 255.861 113.362C256.141 113.416 256.324 113.683 256.269 113.959C256.22 114.202 256.003 114.371 255.761 114.371Z" fill="white"/>
<path d="M259.595 115.505C259.53 115.505 259.465 115.492 259.4 115.466C259.008 115.308 258.61 115.162 258.218 115.031C257.948 114.94 257.803 114.651 257.894 114.385C257.986 114.119 258.28 113.976 258.55 114.067C258.961 114.205 259.378 114.358 259.79 114.523C260.053 114.629 260.181 114.926 260.073 115.187C259.992 115.385 259.799 115.505 259.595 115.505Z" fill="white"/>
<path d="M219.088 155.042C218.802 155.042 218.57 154.814 218.57 154.532V120.173C218.57 119.892 218.801 119.663 219.088 119.663C219.374 119.663 219.605 119.891 219.605 120.173V154.532C219.605 154.813 219.373 155.042 219.088 155.042Z" fill="#3D3D3D"/>
<path d="M101.902 147.318C103.553 147.318 105.028 147.689 106.327 148.431C107.644 149.174 108.776 150.231 109.723 151.604C110.687 152.959 111.439 154.554 111.977 156.391C112.534 158.228 112.868 160.232 112.979 162.403H115.539V169.333H112.478C111.884 171.894 110.854 174.176 109.389 176.18C107.923 178.184 105.937 179.872 103.433 181.245C100.946 182.637 97.8475 183.695 94.1366 184.418L91.7987 178.1C94.3036 177.618 96.558 176.969 98.5619 176.152C100.566 175.336 102.226 174.352 103.544 173.202C104.88 172.07 105.77 170.781 106.216 169.333H102.932C99.2763 169.333 96.5023 168.582 94.6098 167.079C92.7357 165.557 91.7987 163.164 91.7987 159.898C91.7987 158.525 92.0028 157.106 92.411 155.64C92.8378 154.174 93.4686 152.81 94.3036 151.549C95.1571 150.287 96.2147 149.266 97.4765 148.487C98.7567 147.708 100.232 147.318 101.902 147.318ZM102.82 162.403H106.884C106.791 161.253 106.624 160.177 106.383 159.175C106.16 158.173 105.845 157.291 105.436 156.531C105.047 155.77 104.555 155.185 103.961 154.777C103.368 154.35 102.662 154.137 101.846 154.137C100.863 154.137 100.083 154.452 99.5082 155.083C98.933 155.714 98.5248 156.456 98.2836 157.31C98.0424 158.163 97.9218 158.943 97.9218 159.648C97.9218 160.761 98.3485 161.503 99.202 161.874C100.056 162.227 101.262 162.403 102.82 162.403ZM121.967 143.143C123.396 144.034 124.769 144.934 126.086 145.843C127.422 146.734 128.665 147.661 129.816 148.626C130.966 149.573 131.968 150.574 132.822 151.632C133.694 152.671 134.371 153.775 134.853 154.944C135.336 156.113 135.577 157.375 135.577 158.729C135.577 161.42 134.965 163.535 133.74 165.075C132.515 166.615 130.734 167.71 128.396 168.359C126.077 169.009 123.266 169.333 119.963 169.333H113.172V162.403H119.935C122.069 162.403 123.823 162.301 125.196 162.097C126.587 161.874 127.617 161.494 128.285 160.956C128.953 160.399 129.287 159.62 129.287 158.618C129.287 157.931 128.99 157.217 128.396 156.475C127.821 155.733 127.051 154.972 126.086 154.193C125.121 153.413 124.064 152.634 122.913 151.855C121.763 151.075 120.613 150.305 119.462 149.545C118.312 148.784 117.273 148.051 116.345 147.346C115.64 146.808 115.102 146.131 114.731 145.314C114.36 144.498 114.174 143.672 114.174 142.837C114.174 141.891 114.406 141.01 114.87 140.193C115.334 139.358 116.048 138.746 117.013 138.356L137.943 129.84V136.658L121.967 143.143ZM155.225 169.333C154.223 169.333 153.332 169.213 152.553 168.971C151.774 168.73 151.133 168.452 150.633 168.136C150.224 170.808 149.362 173.258 148.044 175.484C146.745 177.729 144.955 179.613 142.673 181.134C140.39 182.674 137.579 183.769 134.239 184.418L131.902 178.128C134.703 177.516 137.05 176.662 138.943 175.568C140.836 174.491 142.264 173.1 143.229 171.393C144.194 169.704 144.676 167.654 144.676 165.242C144.676 163.591 144.445 161.781 143.981 159.815C143.517 157.848 142.979 155.965 142.366 154.165L148.768 152.05L150.326 158.173C150.679 159.509 151.208 160.548 151.913 161.29C152.636 162.032 153.638 162.403 154.919 162.403H155.976V169.333H155.225ZM169 131.482L173.648 136.13L169 140.75L164.38 136.13L169 131.482ZM169.223 151.048C168.629 151.048 167.998 151.28 167.33 151.743C166.681 152.189 166.124 152.745 165.66 153.413C165.215 154.081 164.992 154.74 164.992 155.389C164.992 156.15 165.215 156.911 165.66 157.672C166.124 158.414 166.681 159.091 167.33 159.703C167.998 160.316 168.648 160.789 169.278 161.123C170.002 160.77 170.689 160.297 171.338 159.703C172.006 159.091 172.553 158.405 172.98 157.644C173.407 156.883 173.62 156.113 173.62 155.334C173.62 154.684 173.379 154.035 172.897 153.385C172.433 152.736 171.858 152.189 171.171 151.743C170.484 151.28 169.835 151.048 169.223 151.048ZM179.827 155.334C179.827 156.206 179.725 157.031 179.521 157.811C179.335 158.59 179.047 159.351 178.658 160.093C178.287 160.835 177.804 161.587 177.211 162.347C177.656 162.366 178.064 162.385 178.435 162.403C178.825 162.403 179.177 162.403 179.493 162.403C179.827 162.403 180.142 162.403 180.439 162.403H183.111V169.333H179.771C178.862 169.333 177.814 169.25 176.626 169.083C175.439 168.897 174.205 168.647 172.924 168.331C171.644 168.016 170.401 167.645 169.195 167.218C167.952 167.663 166.671 168.044 165.354 168.359C164.037 168.656 162.766 168.897 161.541 169.083C160.317 169.25 159.222 169.333 158.257 169.333H153.637V162.403H157.7C158.071 162.403 158.433 162.403 158.786 162.403C159.138 162.403 159.519 162.394 159.927 162.375C160.354 162.357 160.817 162.338 161.318 162.32C160.762 161.559 160.289 160.807 159.899 160.065C159.528 159.304 159.24 158.534 159.036 157.755C158.851 156.957 158.758 156.132 158.758 155.278C158.758 153.942 159.046 152.634 159.621 151.354C160.214 150.055 161.003 148.877 161.986 147.819C162.97 146.761 164.083 145.927 165.326 145.314C166.569 144.683 167.859 144.368 169.195 144.368C170.568 144.368 171.885 144.683 173.147 145.314C174.427 145.927 175.568 146.761 176.57 147.819C177.572 148.858 178.361 150.027 178.936 151.326C179.53 152.625 179.827 153.961 179.827 155.334ZM200.17 169.333C198.185 169.333 196.58 168.999 195.355 168.331C194.131 167.645 193.138 166.717 192.377 165.548C191.413 166.736 190.234 167.663 188.843 168.331C187.47 168.999 185.633 169.333 183.332 169.333H180.771V162.403H183.388C184.835 162.403 186.004 162.273 186.895 162.013C187.785 161.754 188.435 161.262 188.843 160.538C189.27 159.815 189.483 158.757 189.483 157.365C189.483 157.069 189.464 156.633 189.427 156.057C189.409 155.482 189.372 154.833 189.316 154.109C189.279 153.385 189.223 152.662 189.149 151.938L195.272 151.187L195.801 158.061C195.894 159.416 196.302 160.483 197.025 161.262C197.749 162.023 198.816 162.403 200.226 162.403C201.933 162.403 203.074 162.004 203.649 161.206C204.243 160.408 204.54 159.128 204.54 157.365C204.54 157.069 204.521 156.633 204.484 156.057C204.466 155.482 204.429 154.833 204.373 154.109C204.336 153.385 204.28 152.662 204.206 151.938L210.329 151.187L210.858 158.061C210.932 159.342 211.257 160.39 211.832 161.206C212.407 162.004 213.363 162.403 214.699 162.403C215.552 162.403 216.22 162.18 216.703 161.735C217.185 161.271 217.528 160.668 217.732 159.926C217.937 159.165 218.039 158.34 218.039 157.449C218.039 156.447 217.955 155.417 217.788 154.36C217.621 153.302 217.436 152.328 217.231 151.437C217.027 150.528 216.86 149.842 216.73 149.378L222.993 147.68C223.345 149.053 223.633 150.519 223.855 152.077C224.097 153.636 224.217 155.185 224.217 156.725C224.217 158.915 223.92 160.974 223.327 162.904C222.733 164.815 221.75 166.365 220.376 167.552C219.003 168.74 217.12 169.333 214.727 169.333C213.02 169.333 211.6 168.981 210.468 168.276C209.355 167.571 208.427 166.652 207.685 165.52C206.702 166.708 205.598 167.645 204.373 168.331C203.148 168.999 201.748 169.333 200.17 169.333Z" fill="#007DF0"/>
<path d="M175.198 138.04C175.198 139.182 175.089 140.292 174.878 141.368H140.819C140.609 140.292 140.5 139.174 140.5 138.04C140.5 136.067 140.836 134.166 141.441 132.397C143.786 125.619 150.248 120.75 157.845 120.75C165.441 120.75 171.904 125.619 174.248 132.397C174.87 134.166 175.198 136.067 175.198 138.04Z" fill="#FF8F00"/>
</svg>
