<svg width="41" height="41" viewBox="0 0 41 41" fill="none" xmlns="http://www.w3.org/2000/svg">
<path d="M20.1315 37.981C10.2482 37.981 2.21484 29.9477 2.21484 20.0644C2.21484 10.181 10.2482 2.14771 20.1315 2.14771C30.0148 2.14771 38.0482 10.181 38.0482 20.0644C38.0482 29.9477 30.0148 37.981 20.1315 37.981ZM20.1315 4.64771C11.6315 4.64771 4.71484 11.5644 4.71484 20.0644C4.71484 28.5644 11.6315 35.481 20.1315 35.481C28.6315 35.481 35.5482 28.5644 35.5482 20.0644C35.5482 11.5644 28.6315 4.64771 20.1315 4.64771Z" fill="#797979"/>
<path d="M17.7672 26.031C17.4339 26.031 17.1172 25.8977 16.8839 25.6644L12.1672 20.9477C11.6839 20.4644 11.6839 19.6644 12.1672 19.181C12.6505 18.6977 13.4505 18.6977 13.9339 19.181L17.7672 23.0144L26.3339 14.4477C26.8172 13.9644 27.6172 13.9644 28.1005 14.4477C28.5839 14.931 28.5839 15.731 28.1005 16.2144L18.6505 25.6644C18.4172 25.8977 18.1005 26.031 17.7672 26.031Z" fill="#797979"/>
</svg>
